<svg width="16" height="16" viewBox="0 0 16 16" fill="none" xmlns="http://www.w3.org/2000/svg">
<g clipPath="url(#clip0_1069_83544)">
<path d="M15.5742 13.6002L10.5371 8.53512C10.7866 8.01231 10.6955 7.36618 10.2632 6.93378C10.1503 6.82079 10.0189 6.72797 9.87468 6.65934L10.4926 6.04146C10.9826 6.2205 11.5645 6.12078 11.9705 5.71475C12.5201 5.16515 12.5202 4.27559 11.9705 3.7259L8.6558 0.411246C8.10749 -0.137098 7.21527 -0.137066 6.66696 0.411246C6.19486 0.883277 6.13521 1.59506 6.45286 2.12587L2.14018 6.43856C1.60043 6.11706 0.89002 6.18818 0.425926 6.65228C-0.123699 7.20187 -0.123793 8.09146 0.425926 8.64112L3.74061 11.9558C4.29021 12.5054 5.1798 12.5055 5.72946 11.9558H5.72949C6.12821 11.5571 6.23664 10.9766 6.05543 10.4786L6.67399 9.86C6.74264 10.0042 6.83546 10.1356 6.94843 10.2485C7.3773 10.6774 8.02083 10.7739 8.54774 10.5234L13.5845 15.5881C14.1328 16.1364 15.025 16.1364 15.5733 15.5881C16.1284 15.033 16.1169 14.1429 15.5742 13.6002ZM7.32989 1.07418C7.51268 0.891434 7.81008 0.891402 7.99286 1.07418L11.3075 4.3889C11.4907 4.57212 11.4907 4.86865 11.3075 5.05184C11.1243 5.23503 10.8278 5.23506 10.6446 5.05184L7.32989 1.73715C7.14711 1.55434 7.14711 1.25696 7.32989 1.07418ZM5.06646 11.2929C4.8833 11.4761 4.58674 11.4761 4.40352 11.2929L1.08883 7.97818C0.905613 7.79496 0.905613 7.49847 1.08883 7.31525C1.27164 7.13246 1.56899 7.1325 1.7518 7.31525L5.06646 10.6299C5.24927 10.8127 5.24927 11.1101 5.06646 11.2929ZM5.4853 9.72287L2.83352 7.07109L7.08577 2.81887L9.73752 5.47065L5.4853 9.72287ZM8.27527 9.58465L8.27436 9.58556C8.09155 9.76834 7.79421 9.76831 7.61139 9.58556C7.42824 9.4024 7.42814 9.106 7.6113 8.92272L8.93727 7.59675C9.12014 7.41387 9.41758 7.41409 9.60021 7.59675C9.78299 7.77953 9.78299 8.07693 9.60024 8.25968L8.27527 9.58465ZM9.26783 9.91796L9.9308 9.255L13.2576 12.6003L12.5947 13.2632L9.26783 9.91796ZM14.9104 14.9252C14.7276 15.1079 14.4302 15.1079 14.2483 14.9261L13.2558 13.928L13.9187 13.2651L14.9104 14.2622C15.0936 14.4454 15.0936 14.7419 14.9104 14.9252Z" fill="white"/>
<path d="M9.85981 15.0626H9.34387C9.12613 13.994 8.17909 13.1875 7.04719 13.1875H3.29703C2.16513 13.1875 1.21812 13.994 1.00034 15.0626H0.484406C0.225531 15.0626 0.015625 15.2724 0.015625 15.5313C0.015625 15.7902 0.2255 16.0001 0.484406 16.0001H9.85978C10.1187 16.0001 10.3286 15.7902 10.3286 15.5313C10.3286 15.2724 10.1187 15.0626 9.85981 15.0626ZM1.97103 15.0626C2.1645 14.5169 2.68584 14.125 3.29703 14.125H7.04719C7.65837 14.125 8.17969 14.5169 8.37319 15.0626H1.97103Z" fill="white"/>
</g>
<defs>
<clipPath id="clip0_1069_83544">
<rect width="16" height="16" fill="white"/>
</clipPath>
</defs>
</svg>
