<svg width="18" height="16" viewBox="0 0 18 16" fill="none" xmlns="http://www.w3.org/2000/svg">
<g id="lottery">
<g id="Group">
<path id="Vector" d="M1.96018 14.4213C1.93436 14.4213 1.90848 14.4213 1.89563 14.4083C1.83108 14.3955 1.76653 14.3438 1.74071 14.2792L1.03068 12.9625C0.96613 12.8334 1.00479 12.6785 1.13389 12.614L1.56004 12.3815L1.32754 11.8909C1.276 11.7749 1.31469 11.6327 1.41794 11.5682L1.88279 11.2713L1.63744 10.7549C1.58573 10.6387 1.62459 10.4967 1.7278 10.4322L2.20553 10.1094L1.96018 9.56722C1.93436 9.51565 1.93436 9.4511 1.94733 9.3994L2.43787 7.52749C1.66329 6.81745 1.35339 5.6943 1.65028 4.6228C1.85693 3.88694 2.33463 3.26727 3.0058 2.89283C3.67714 2.51854 4.43888 2.42814 5.18761 2.63463C6.71096 3.06078 7.60173 4.64865 7.1628 6.17196C6.86588 7.25645 5.97504 8.12127 4.96815 8.32789L3.4965 13.466C3.4835 13.5305 3.43195 13.5822 3.38025 13.6209L2.08928 14.3696C2.05055 14.4084 1.99891 14.4213 1.96018 14.4213ZM1.59871 12.9496L2.06346 13.8016L3.03169 13.2336L4.51631 8.04388C4.54213 7.9406 4.63249 7.87605 4.72293 7.86307C5.60076 7.74698 6.38819 6.99825 6.65939 6.04287C7.00782 4.79062 6.28494 3.49965 5.03266 3.15102C4.42591 2.98323 3.79339 3.06078 3.25115 3.35767C2.70894 3.66741 2.30874 4.17096 2.14098 4.76474C1.88279 5.68143 2.17968 6.64966 2.88971 7.23059C2.96711 7.29514 3.0058 7.39839 2.98008 7.50164L2.47657 9.43809L2.77349 10.0966C2.82513 10.2127 2.78647 10.3418 2.68306 10.4193L2.20553 10.7291L2.45072 11.2326C2.50242 11.3487 2.46372 11.4908 2.36035 11.5554L1.89563 11.8522L2.14098 12.3558C2.20553 12.4849 2.15383 12.6268 2.03757 12.6914L1.59871 12.9496Z" fill="white" stroke="white" strokeWidth="0.5"/>
<path id="Vector_2" d="M4.65865 5.38411C4.58109 5.38411 4.49069 5.3711 4.4133 5.34525C4.18092 5.2807 3.98727 5.12591 3.85818 4.91926C3.74199 4.71277 3.71611 4.46742 3.78065 4.23508C3.92276 3.75742 4.42614 3.47334 4.90383 3.60244C5.13621 3.66698 5.32985 3.82193 5.45895 4.02859C5.57517 4.23508 5.60102 4.48043 5.53647 4.71277C5.42022 5.12588 5.05878 5.38408 4.65861 5.38408L4.65865 5.38411ZM4.65865 4.09313C4.49069 4.09313 4.3229 4.20923 4.2842 4.37702C4.25838 4.48043 4.27135 4.58367 4.32293 4.67407C4.37457 4.76431 4.465 4.82886 4.55524 4.85471C4.76189 4.91926 4.98139 4.79016 5.04594 4.58367C5.07163 4.48039 5.05878 4.37702 5.00708 4.28675C4.95554 4.19638 4.86514 4.13183 4.77474 4.10598C4.72319 4.09313 4.69734 4.09313 4.65865 4.09313ZM6.87899 6.46843C6.3239 6.46843 5.80752 6.28779 5.36868 5.95204C5.25243 5.86167 5.23958 5.70685 5.31698 5.5906C5.40735 5.47435 5.56233 5.4615 5.67845 5.5389C6.02701 5.8101 6.44012 5.93919 6.87899 5.93919C7.22759 5.93919 7.57618 5.84879 7.87307 5.66799C8.00217 5.5906 8.15712 5.6423 8.22167 5.75839C8.29906 5.88749 8.24749 6.04244 8.1313 6.10699C7.75698 6.35234 7.31799 6.46843 6.87899 6.46843Z" fill="white" stroke="white" strokeWidth="0.5"/>
<path id="Vector_3" d="M4.6703 4.09352H4.65746C4.51535 4.08051 4.41211 3.96442 4.41211 3.82231C4.50248 2.53134 5.58683 1.52441 6.8778 1.52441C8.02683 1.52441 9.04677 2.33773 9.29196 3.47372C9.31781 3.61582 9.24041 3.74492 9.09831 3.78362C8.95637 3.80944 8.82727 3.73191 8.78857 3.58997C8.59493 2.67344 7.79449 2.02796 6.8778 2.02796C5.85803 2.02796 4.99305 2.82823 4.9285 3.84817C4.91565 3.97726 4.7994 4.09352 4.6703 4.09352Z" fill="white" stroke="white" strokeWidth="0.5"/>
<path id="Vector_4" d="M12.9463 12.5107C12.8817 12.5107 12.8172 12.485 12.7656 12.4333L8.37632 8.04403C8.27304 7.94075 8.04057 7.66958 8.04057 7.34684L7.76953 4.49385V4.46803C7.76953 4.11941 7.87281 3.86121 8.10512 3.61599C8.33762 3.38368 8.59582 3.28027 8.89271 3.28027H8.98308L11.8361 3.53847C12.1717 3.53847 12.4299 3.78382 12.5333 3.87422L16.9226 8.26353C17.0258 8.36677 17.0258 8.52172 16.9226 8.62497L13.1271 12.4333C13.0883 12.485 13.0238 12.5107 12.9463 12.5107ZM8.28592 4.45516L8.55696 7.30814V7.33399C8.55696 7.43727 8.63452 7.56637 8.75061 7.68256L12.9593 11.8911L16.3804 8.45714L12.1717 4.24854C12.0556 4.13244 11.9135 4.05489 11.8233 4.05489H11.7974L8.89271 3.78385C8.73776 3.78385 8.60866 3.8484 8.47957 3.9775C8.33762 4.11944 8.28592 4.24854 8.28592 4.45516Z" fill="white" stroke="white" strokeWidth="0.5"/>
<path id="Vector_5" d="M10.9965 7.9796C10.932 7.9796 10.8674 7.95378 10.8157 7.90221C10.7125 7.7988 10.7125 7.64401 10.8157 7.54061L12.068 6.28849C12.1713 6.18509 12.3262 6.18509 12.4295 6.28849C12.5328 6.39174 12.5328 6.54669 12.4295 6.64993L11.1773 7.90218C11.1256 7.95375 11.0611 7.9796 10.9965 7.9796ZM12.4553 9.43837C12.3908 9.43837 12.3262 9.41255 12.2746 9.36098C12.1712 9.2577 12.1712 9.10278 12.2746 8.9995L13.5268 7.74726C13.6302 7.64398 13.785 7.64398 13.8884 7.74726C13.9916 7.85051 13.9916 8.00545 13.8884 8.1087L12.6361 9.36094C12.5844 9.41252 12.5198 9.4384 12.4553 9.4384L12.4553 9.43837Z" fill="white" stroke="white" strokeWidth="0.5"/>
</g>
</g>
</svg>
