<svg width="16" height="16" viewBox="0 0 16 16" fill="none" xmlns="http://www.w3.org/2000/svg">
<g clipPath="url(#clip0_1071_83642)">
<path d="M8 15.5312C12.1594 15.5312 15.5312 12.1594 15.5312 8C15.5312 3.84061 12.1594 0.46875 8 0.46875C3.84061 0.46875 0.46875 3.84061 0.46875 8C0.46875 12.1594 3.84061 15.5312 8 15.5312Z" stroke="white" strokeWidth="0.9375" strokeMiterlimit="10"/>
<path d="M8 11.75C10.0711 11.75 11.75 10.0711 11.75 8C11.75 5.92893 10.0711 4.25 8 4.25C5.92893 4.25 4.25 5.92893 4.25 8C4.25 10.0711 5.92893 11.75 8 11.75Z" stroke="white" strokeWidth="0.9375" strokeMiterlimit="10"/>
<path d="M5.12908 1.03613C5.81699 1.85457 6.84808 2.37491 8.00089 2.37491C9.1537 2.37491 10.1848 1.85457 10.8727 1.03613M1.03711 10.8717C1.85555 10.1838 2.37589 9.15273 2.37589 7.99991C2.37589 6.8471 1.85555 5.81601 1.03711 5.1281M10.8727 14.9637C10.1848 14.1453 9.1537 13.6249 8.00089 13.6249C6.84808 13.6249 5.81699 14.1453 5.12908 14.9637M14.9647 5.1281C14.1462 5.81601 13.6259 6.8471 13.6259 7.99991C13.6259 9.15273 14.1462 10.1838 14.9647 10.8717" stroke="white" strokeWidth="0.9375" strokeMiterlimit="10"/>
</g>
<defs>
<clipPath id="clip0_1071_83642">
<rect width="16" height="16" fill="white"/>
</clipPath>
</defs>
</svg>
