<svg width="16" height="16" viewBox="0 0 16 16" fill="none" xmlns="http://www.w3.org/2000/svg">
<path d="M6.32304 15.2183C3.17843 15.2183 0.623047 12.663 0.623047 9.51835C0.623047 6.37374 3.17843 3.81836 6.32304 3.81836C9.46765 3.81836 12.023 6.37374 12.023 9.51835C12.023 12.663 9.46765 15.2183 6.32304 15.2183Z" stroke="white" strokeWidth="0.75"/>
<g clipPath="url(#clip0_1204_16486)">
<path d="M6.32479 11.4023L4.23923 10.4291L6.32289 13.109L6.63593 12.7064V11.2567L6.32479 11.4023ZM6.32289 5.92676L3.92969 10.0309H8.71614L6.32289 5.92676Z" fill="#29ABE2"/>
<path d="M8.71551 10.037L6.32227 5.92676V10.037H8.71551Z" fill="#2493C2"/>
<path d="M6.34526 9.17029L6.33587 9.16602L5.35246 9.74924L4.24023 10.4286L6.33798 11.4105L6.34738 11.4062L6.6583 11.2608V9.31681L6.34526 9.17029Z" fill="#1E789E"/>
<path d="M7.58759 9.95188L6.34533 9.17029L6.33594 9.16602L6.33805 11.4105L6.34744 11.4062L8.39671 10.4392L7.58759 9.95188Z" fill="#1E789E"/>
<path d="M6.32267 8.91639L6.31328 8.91211L3.92969 10.0343H3.93182L6.31539 11.1566L6.32479 11.1523L6.63571 11.0069V9.06291L6.32267 8.91639Z" fill="#1F7EA6"/>
<path d="M6.32417 11.4027L6.32227 13.1094L8.40742 10.4277L6.32417 11.4027Z" fill="#2493C2"/>
<path d="M8.71068 10.0343L6.32189 8.91639L6.3125 8.91211L6.31461 11.1566L6.32401 11.1523L8.71279 10.0343H8.71068Z" fill="#1D7296"/>
</g>
<path d="M13.2063 4.60955V3.89133C13.2063 3.77162 13.1166 3.68184 12.9969 3.68184H8.89698C8.77728 3.68184 8.6875 3.59207 8.6875 3.47236V1.58702C8.6875 1.46731 8.77728 1.37754 8.89698 1.37754H12.9669C13.0866 1.37754 13.1764 1.28776 13.1764 1.16805V0.449828C13.1764 0.270272 13.4158 0.150568 13.5355 0.300198L15.5106 2.3651C15.6004 2.45488 15.6004 2.57458 15.5106 2.66436L13.5355 4.72926C13.4457 4.87889 13.2063 4.78911 13.2063 4.60955Z" fill="white"/>
<defs>
<clipPath id="clip0_1204_16486">
<rect width="4.78817" height="7.18226" fill="white" transform="translate(3.92969 5.92676)"/>
</clipPath>
</defs>
</svg>
