<svg width="52" height="35" viewBox="0 0 52 35" fill="none" xmlns="http://www.w3.org/2000/svg">
<path d="M18.1473 2.57807C15.3593 2.32461 13.8736 3.7691 13.4079 4.22655C12.5981 5.02194 11.3143 6.5674 10.7291 7.52352C8.32232 11.4593 7.81954 12.8172 5.98972 15.972C4.84815 17.9399 3.82815 19.9757 2.69275 21.9477C2.36512 22.5144 1.86439 23.5839 1.66245 24.8326C1.37603 26.6047 1.66657 28.0327 1.86851 28.5417C2.18378 29.3391 3.06366 30.831 4.75336 31.6326C7.03651 32.7144 9.48863 31.3585 10.1109 31.0144C10.6549 30.7136 11.7512 30.0191 13.82 26.8932C15.0852 24.981 15.3243 24.2639 17.117 20.9174C19.0746 17.2661 20.0533 15.4404 20.8261 14.1175C22.1078 11.927 22.6765 11.1172 22.8867 9.58412C22.9979 8.78255 23.2349 6.84352 22.0624 5.05079C21.8316 4.69637 20.9085 3.33225 19.1776 2.78413C19.0169 2.73467 18.6377 2.6234 18.1473 2.57807Z" fill="url(#paint0_linear_401_3535)" stroke="#29ABE2" stroke-width="0.20606" stroke-miterlimit="10"/>
<path d="M34.2201 19.6357C33.808 19.6357 31.4197 24.6368 30.3049 26.2297C28.8625 28.2903 27.9868 29.4483 27.4201 29.9387C26.4537 30.7774 25.3945 31.2349 24.7413 31.3812C23.7584 31.6016 22.6807 31.6387 21.4443 31.1751C20.173 30.697 19.4847 29.7533 19.1777 29.3206C18.3555 28.1604 18.2113 27.0065 18.1474 26.4357C17.9722 24.8779 18.3576 23.6106 18.7656 22.5206C19.664 20.122 20.5274 18.9557 22.0625 16.3387C23.1608 14.4657 24.4034 12.3453 25.7716 9.53875C26.6721 7.69039 27.1666 6.487 28.4504 5.00542C29.9217 3.30749 31.1148 2.76349 31.7474 2.5327C32.1142 2.39876 33.1094 2.07112 34.4262 2.12058C34.8074 2.135 36.0973 2.21331 37.5171 2.94482C38.8462 3.631 39.7075 4.59124 40.608 5.82967C42.3059 8.16433 42.751 9.28942 44.5231 12.6297C46.0974 15.5969 47.614 18.3994 47.614 18.3994C48.3064 19.5265 49.8807 22.9327 50.0867 23.5509C50.3732 24.4122 50.4989 25.6115 50.4989 26.2297C50.4989 26.784 50.6307 28.0121 49.8807 29.3206C49.5922 29.8233 48.7267 30.9732 47.408 31.5872C45.6853 32.3909 43.9441 31.9705 42.8746 31.5872C40.5565 30.7547 39.248 28.9229 38.7534 28.2903C38.1868 27.567 38.1352 27.0539 36.8989 24.7872C36.5424 24.134 34.4859 19.6357 34.2201 19.6357Z" fill="url(#paint1_linear_401_3535)" stroke="url(#paint2_linear_401_3535)" stroke-width="0.20606" stroke-miterlimit="10"/>
<path d="M17.8738 15.586H15.3127C15.2785 15.323 15.2085 15.0857 15.1027 14.874C14.9968 14.6623 14.8568 14.4813 14.6827 14.331C14.5085 14.1808 14.3019 14.0664 14.0629 13.9878C13.8272 13.9059 13.566 13.8649 13.2792 13.8649C12.7704 13.8649 12.3315 13.9896 11.9627 14.2388C11.5974 14.4881 11.3156 14.8484 11.1176 15.3196C10.9229 15.7909 10.8256 16.3612 10.8256 17.0305C10.8256 17.7271 10.9246 18.311 11.1227 18.7823C11.3242 19.2501 11.6059 19.6035 11.9679 19.8426C12.3333 20.0782 12.7652 20.196 13.2638 20.196C13.5438 20.196 13.7982 20.1601 14.027 20.0884C14.2592 20.0167 14.4624 19.9126 14.6366 19.776C14.8141 19.636 14.9593 19.4669 15.0719 19.2689C15.1881 19.0674 15.2683 18.8403 15.3127 18.5876L17.8738 18.603C17.8294 19.0674 17.6945 19.525 17.4692 19.9757C17.2472 20.4265 16.9416 20.838 16.5523 21.2102C16.163 21.579 15.6883 21.8727 15.1283 22.0912C14.5717 22.3098 13.9331 22.4191 13.2126 22.4191C12.2633 22.4191 11.413 22.2108 10.6617 21.7941C9.91385 21.3741 9.32308 20.7629 8.8894 19.9604C8.45572 19.1579 8.23888 18.1813 8.23888 17.0305C8.23888 15.8762 8.45913 14.8979 8.89964 14.0954C9.34016 13.2929 9.93604 12.6834 10.6873 12.2668C11.4386 11.8502 12.2803 11.6419 13.2126 11.6419C13.8477 11.6419 14.4351 11.7306 14.9746 11.9082C15.5142 12.0824 15.9888 12.3385 16.3986 12.6766C16.8084 13.0112 17.1413 13.4227 17.3974 13.911C17.6536 14.3993 17.8123 14.9577 17.8738 15.586ZM21.8295 17.7886V22.2756H19.3247V11.7853H21.7475V15.8523H21.8346C22.0122 15.3674 22.3024 14.9884 22.7054 14.7152C23.1117 14.442 23.6086 14.3054 24.1959 14.3054C24.7491 14.3054 25.2306 14.4284 25.6404 14.6742C26.0502 14.9167 26.3678 15.2599 26.5931 15.7038C26.8219 16.1477 26.9346 16.6668 26.9312 17.261V22.2756H24.4264V17.7527C24.4299 17.3156 24.3206 16.9741 24.0986 16.7282C23.8767 16.4824 23.5642 16.3594 23.1612 16.3594C22.8983 16.3594 22.6661 16.4175 22.4646 16.5336C22.2666 16.6463 22.1112 16.8085 21.9985 17.0202C21.8892 17.2319 21.8329 17.488 21.8295 17.7886ZM30.7127 22.4088C30.2107 22.4088 29.7651 22.3251 29.3758 22.1578C28.9899 21.9871 28.6843 21.731 28.4589 21.3895C28.237 21.0446 28.126 20.6126 28.126 20.0936C28.126 19.6565 28.2028 19.2877 28.3565 18.9872C28.5101 18.6867 28.7219 18.4425 28.9916 18.2547C29.2614 18.0669 29.5722 17.9251 29.9239 17.8295C30.2756 17.7305 30.6512 17.6639 31.0508 17.6298C31.4981 17.5888 31.8584 17.5461 32.1316 17.5017C32.4048 17.4539 32.6028 17.3873 32.7258 17.3019C32.8521 17.2132 32.9153 17.0885 32.9153 16.928V16.9024C32.9153 16.6395 32.8248 16.4363 32.6438 16.2929C32.4628 16.1494 32.2186 16.0777 31.9113 16.0777C31.5801 16.0777 31.3137 16.1494 31.1122 16.2929C30.9108 16.4363 30.7827 16.6343 30.7281 16.887L28.4179 16.8051C28.4862 16.327 28.6621 15.9002 28.9455 15.5245C29.2324 15.1455 29.6251 14.8484 30.1237 14.6332C30.6256 14.4147 31.2283 14.3054 31.9318 14.3054C32.4338 14.3054 32.8965 14.3652 33.3199 14.4847C33.7434 14.6008 34.1122 14.7715 34.4263 14.9969C34.7405 15.2189 34.983 15.4921 35.1537 15.8165C35.3279 16.1409 35.4149 16.5114 35.4149 16.928V22.2756H33.0587V21.1795H32.9972C32.8572 21.4458 32.6779 21.6712 32.4594 21.8556C32.2443 22.04 31.9899 22.1783 31.6962 22.2705C31.4059 22.3627 31.0781 22.4088 30.7127 22.4088ZM31.4862 20.7697C31.7559 20.7697 31.9984 20.7151 32.2135 20.6058C32.4321 20.4965 32.6062 20.3463 32.736 20.155C32.8658 19.9604 32.9306 19.735 32.9306 19.4789V18.731C32.8589 18.7686 32.7719 18.8028 32.6694 18.8335C32.5704 18.8642 32.4611 18.8932 32.3416 18.9206C32.2221 18.9479 32.0991 18.9718 31.9728 18.9923C31.8464 19.0128 31.7252 19.0315 31.6091 19.0486C31.3735 19.0862 31.172 19.1442 31.0047 19.2228C30.8408 19.3013 30.7144 19.4038 30.6256 19.5301C30.5403 19.653 30.4976 19.7999 30.4976 19.9706C30.4976 20.2302 30.5898 20.4282 30.7742 20.5648C30.962 20.7014 31.1993 20.7697 31.4862 20.7697ZM41.3875 14.4079V16.2519H36.424V14.4079H41.3875ZM37.4638 12.5229H39.9686V19.8016C39.9686 19.9553 39.9925 20.0799 40.0403 20.1755C40.0915 20.2677 40.165 20.3343 40.2606 20.3753C40.3562 20.4128 40.4706 20.4316 40.6038 20.4316C40.6994 20.4316 40.8001 20.4231 40.906 20.406C41.0152 20.3855 41.0972 20.3685 41.1518 20.3548L41.5309 22.1629C41.4114 22.1971 41.2423 22.2398 41.0238 22.291C40.8087 22.3422 40.5508 22.3747 40.2503 22.3883C39.663 22.4156 39.1593 22.3473 38.7393 22.1834C38.3227 22.0161 38.0034 21.7566 37.7814 21.4049C37.5629 21.0531 37.457 20.6109 37.4638 20.0782V12.5229Z" fill="black"/>
<defs>
<linearGradient id="paint0_linear_401_3535" x1="4.92082" y1="3.89001" x2="15.8378" y2="23.9221" gradientUnits="userSpaceOnUse">
<stop stop-color="#00A8F3"/>
<stop offset="0.3392" stop-color="#0AA9EF"/>
<stop offset="0.9115" stop-color="#24ABE4"/>
<stop offset="1" stop-color="#29ABE2"/>
</linearGradient>
<linearGradient id="paint1_linear_401_3535" x1="61.0345" y1="17.0794" x2="93.4383" y2="17.0794" gradientUnits="userSpaceOnUse">
<stop stop-color="#00A8F3"/>
<stop offset="0.3392" stop-color="#0AA9EF"/>
<stop offset="0.9115" stop-color="#24ABE4"/>
<stop offset="1" stop-color="#29ABE2"/>
</linearGradient>
<linearGradient id="paint2_linear_401_3535" x1="18.0007" y1="17.0794" x2="50.6106" y2="17.0794" gradientUnits="userSpaceOnUse">
<stop stop-color="#00A8F3"/>
<stop offset="0.3392" stop-color="#0AA9EF"/>
<stop offset="0.9115" stop-color="#24ABE4"/>
<stop offset="1" stop-color="#29ABE2"/>
</linearGradient>
</defs>
</svg>
