<svg width="96" height="44" viewBox="0 0 96 44" fill="none" xmlns="http://www.w3.org/2000/svg">
<path d="M12.7395 10.5934C10.7443 10.4137 9.6811 11.4379 9.34783 11.7622C8.76829 12.3262 7.84958 13.4219 7.43078 14.0999C5.70838 16.8905 5.34857 17.8533 4.03908 20.0901C3.22212 21.4854 2.49216 22.9289 1.67963 24.3271C1.44516 24.7289 1.08682 25.4872 0.942301 26.3726C0.737324 27.6291 0.94525 28.6416 1.08977 29.0025C1.31539 29.5679 1.94507 30.6257 3.15428 31.194C4.7882 31.9611 6.54304 30.9997 6.98838 30.7557C7.37769 30.5424 8.16221 30.05 9.64276 27.8336C10.5482 26.4778 10.7193 25.9694 12.0022 23.5966C13.4031 21.0077 14.1036 19.7132 14.6566 18.7752C15.5738 17.2221 15.9808 16.6479 16.1312 15.5609C16.2109 14.9926 16.3805 13.6177 15.5414 12.3466C15.3762 12.0953 14.7156 11.1281 13.4769 10.7395C13.3618 10.7044 13.0905 10.6255 12.7395 10.5934Z" fill="url(#paint0_linear_297_19082)" stroke="#29ABE2" stroke-miterlimit="10"/>
<path d="M24.2418 22.6878C23.9469 22.6878 22.2378 26.2337 21.44 27.3631C20.4077 28.8242 19.781 29.6453 19.3755 29.993C18.6839 30.5876 17.9259 30.912 17.4584 31.0157C16.755 31.172 15.9838 31.1983 15.099 30.8696C14.1891 30.5306 13.6966 29.8615 13.4769 29.5547C12.8885 28.7321 12.7853 27.9139 12.7395 27.5092C12.6142 26.4047 12.89 25.5061 13.1819 24.7332C13.8249 23.0326 14.4428 22.2056 15.5414 20.3501C16.3274 19.022 17.2166 17.5186 18.1958 15.5287C18.8402 14.2181 19.1941 13.3649 20.1128 12.3144C21.1657 11.1105 22.0195 10.7248 22.4723 10.5612C22.7347 10.4662 23.447 10.2339 24.3893 10.269C24.6621 10.2792 25.5853 10.3347 26.6013 10.8534C27.5524 11.3399 28.1688 12.0207 28.8133 12.8988C30.0284 14.5542 30.3469 15.3519 31.6151 17.7203C32.7417 19.8241 33.8271 21.8112 33.8271 21.8112C34.3226 22.6104 35.4492 25.0254 35.5967 25.4638C35.8017 26.0745 35.8916 26.9248 35.8916 27.3631C35.8916 27.7561 35.986 28.6269 35.4492 29.5547C35.2428 29.9112 34.6234 30.7264 33.6796 31.1618C32.4468 31.7316 31.2007 31.4336 30.4354 31.1618C28.7764 30.5716 27.84 29.2727 27.4861 28.8242C27.0806 28.3113 27.0437 27.9475 26.1589 26.3404C25.9038 25.8772 24.4321 22.6878 24.2418 22.6878Z" fill="url(#paint1_linear_297_19082)" stroke="url(#paint2_linear_297_19082)" stroke-miterlimit="10"/>
<path d="M39.1742 20.5825C39.5562 20.3327 40.0664 20.1296 40.7049 19.9747C41.3434 19.8199 41.8891 19.7424 42.3418 19.7424C44.7027 19.7424 45.8839 21.1275 45.8839 23.8962V29.8616H43.5407V28.4239H43.5097C42.9346 29.5431 42.0926 30.1027 40.9836 30.1027C40.1844 30.1027 39.5444 29.8367 39.0636 29.3035C38.5829 28.7702 38.3425 28.0455 38.3425 27.128C38.3425 25.2345 39.307 24.1329 41.2358 23.8231L43.5569 23.4564C43.5569 22.308 43.0452 21.7324 42.0218 21.7324C41.0146 21.7324 40.0649 22.0889 39.1742 22.8048V20.5825ZM41.9599 25.3879C41.0692 25.5252 40.6238 25.9957 40.6238 26.7992C40.6238 27.1689 40.7315 27.4655 40.9482 27.6919C41.165 27.9184 41.4555 28.0309 41.8227 28.0309C42.327 28.0309 42.7414 27.822 43.0673 27.4056C43.3932 26.9892 43.5554 26.4705 43.5554 25.851V25.1454L41.9599 25.3879Z" fill="#F2F2F2"/>
<path d="M50.4642 28.6738V34.4083H47.9985V19.9835H50.4642V21.4928H50.4951C51.141 20.3254 52.0553 19.7424 53.235 19.7424C54.3086 19.7424 55.1477 20.1822 55.7537 21.0603C56.3598 21.9384 56.6621 23.1335 56.6621 24.6457C56.6621 26.2952 56.3112 27.6174 55.6092 28.6109C54.9073 29.6059 53.9856 30.1027 52.8457 30.1027C51.812 30.1027 51.029 29.6264 50.4951 28.6738H50.4642ZM50.4258 25.4945C50.4258 26.1973 50.588 26.7715 50.9139 27.2186C51.2398 27.6656 51.6616 27.8877 52.1807 27.8877C52.7956 27.8877 53.2763 27.6072 53.6199 27.0476C53.9635 26.488 54.1346 25.6962 54.1346 24.672C54.1346 22.8618 53.5314 21.9574 52.3252 21.9574C51.7648 21.9574 51.3091 22.2072 50.9552 22.7083C50.6013 23.208 50.4243 23.8509 50.4243 24.6369V25.4945H50.4258Z" fill="#F2F2F2"/>
<path d="M57.9067 24.9671C57.9067 23.341 58.3226 22.064 59.1543 21.1363C59.986 20.207 61.1053 19.7424 62.5091 19.7424C63.8673 19.7424 64.9467 20.1997 65.746 21.1129C66.5453 22.0275 66.9449 23.2548 66.9449 24.7976C66.9449 26.4179 66.5349 27.7066 65.7165 28.665C64.8966 29.6234 63.7877 30.1027 62.3882 30.1027C61.0138 30.1027 59.9241 29.6424 59.1174 28.7234C58.3108 27.8044 57.9067 26.5523 57.9067 24.9671ZM60.4033 24.932C60.4033 26.903 61.0905 27.8877 62.4649 27.8877C63.7832 27.8877 64.4424 26.8752 64.4424 24.8517C64.4424 22.9231 63.7788 21.9574 62.4501 21.9574C61.8042 21.9574 61.3014 22.216 60.9431 22.7346C60.5818 23.2533 60.4033 23.9853 60.4033 24.932Z" fill="#F2F2F2"/>
<path d="M68.1821 24.9671C68.1821 23.341 68.598 22.064 69.4297 21.1363C70.2614 20.207 71.3807 19.7424 72.7845 19.7424C74.1427 19.7424 75.2221 20.1997 76.0214 21.1129C76.8207 22.0275 77.2203 23.2548 77.2203 24.7976C77.2203 26.4179 76.8103 27.7066 75.9919 28.665C75.172 29.6234 74.0631 30.1027 72.6636 30.1027C71.2892 30.1027 70.1995 29.6424 69.3928 28.7234C68.5862 27.8044 68.1821 26.5523 68.1821 24.9671ZM70.6772 24.932C70.6772 26.903 71.3644 27.8877 72.7388 27.8877C74.0572 27.8877 74.7163 26.8752 74.7163 24.8517C74.7163 22.9231 74.0527 21.9574 72.7241 21.9574C72.0782 21.9574 71.5753 22.216 71.217 22.7346C70.8572 23.2533 70.6772 23.9853 70.6772 24.932Z" fill="#F2F2F2"/>
<path d="M85.555 29.8616H78.0505V28.6913L82.3713 22.1356H78.4782V19.9835H85.5315V21.3774L81.4024 27.7095H85.555V29.8616Z" fill="#F2F2F2"/>
<path d="M94.4871 25.7356H88.9291C89.0161 27.2653 89.805 28.0309 91.2959 28.0309C92.2279 28.0309 93.0493 27.7635 93.7615 27.2273V29.3444C92.9932 29.8499 91.986 30.1041 90.7385 30.1041C89.3951 30.1041 88.351 29.66 87.6049 28.7731C86.8587 27.8863 86.4871 26.6502 86.4871 25.0665C86.4871 23.4885 86.8837 22.2072 87.6786 21.221C88.4719 20.2363 89.4703 19.7424 90.6707 19.7424C91.8666 19.7424 92.8015 20.1661 93.4754 21.015C94.1494 21.8639 94.4871 23.0298 94.4871 24.5113V25.7356ZM92.1895 23.9312C92.1895 22.4541 91.6778 21.7163 90.6544 21.7163C90.2312 21.7163 89.8581 21.9194 89.5322 22.3241C89.2063 22.7288 89.0028 23.265 88.9217 23.9312H92.1895Z" fill="#F2F2F2"/>
<defs>
<linearGradient id="paint0_linear_297_19082" x1="3.27413" y1="11.5236" x2="10.9756" y2="25.787" gradientUnits="userSpaceOnUse">
<stop stop-color="#00A8F3"/>
<stop offset="0.3392" stop-color="#0AA9EF"/>
<stop offset="0.9115" stop-color="#24ABE4"/>
<stop offset="1" stop-color="#29ABE2"/>
</linearGradient>
<linearGradient id="paint1_linear_297_19082" x1="43.4313" y1="20.8753" x2="66.6209" y2="20.8753" gradientUnits="userSpaceOnUse">
<stop stop-color="#00A8F3"/>
<stop offset="0.3392" stop-color="#0AA9EF"/>
<stop offset="0.9115" stop-color="#24ABE4"/>
<stop offset="1" stop-color="#29ABE2"/>
</linearGradient>
<linearGradient id="paint2_linear_297_19082" x1="12.6346" y1="20.8753" x2="35.9716" y2="20.8753" gradientUnits="userSpaceOnUse">
<stop stop-color="#00A8F3"/>
<stop offset="0.3392" stop-color="#0AA9EF"/>
<stop offset="0.9115" stop-color="#24ABE4"/>
<stop offset="1" stop-color="#29ABE2"/>
</linearGradient>
</defs>
</svg>
