<svg width="60" height="40" viewBox="0 0 60 40" fill="none" xmlns="http://www.w3.org/2000/svg">
	<path d="M20.8896 2.95231C17.6554 2.65829 15.9319 4.33399 15.3916 4.86466C14.4522 5.78737 12.9629 7.5802 12.2841 8.68937C9.49202 13.2551 8.90876 14.8304 6.78605 18.4902C5.46174 20.773 4.27848 23.1348 2.96135 25.4224C2.58127 26.0798 2.00039 27.3204 1.76613 28.7691C1.43386 30.8248 1.77091 32.4814 2.00517 33.0718C2.37091 33.9969 3.39162 35.7276 5.35178 36.6575C8.00039 37.9125 10.845 36.3396 11.5669 35.9404C12.198 35.5914 13.4697 34.7858 15.8697 31.1595C17.3374 28.9412 17.6147 28.1093 19.6944 24.2272C21.9653 19.9914 23.1008 17.8734 23.9972 16.3388C25.4841 13.7977 26.1438 12.8583 26.3876 11.0798C26.5167 10.1499 26.7916 7.90052 25.4315 5.82084C25.1637 5.40968 24.0928 3.82721 22.0849 3.19136C21.8984 3.13398 21.4586 3.0049 20.8896 2.95231Z" fill="url(#paint0_linear_1208_34473)" stroke="#29ABE2" stroke-miterlimit="10" />
	<path d="M39.5356 22.7406C39.0575 22.7406 36.287 28.5422 34.9938 30.39C33.3204 32.7804 32.3045 34.1239 31.6471 34.6928C30.526 35.6657 29.2973 36.1964 28.5396 36.3661C27.3993 36.6219 26.1491 36.6649 24.7149 36.127C23.24 35.5725 22.4416 34.4776 22.0854 33.9756C21.1316 32.6298 20.9643 31.2912 20.8902 30.629C20.687 28.8219 21.134 27.3517 21.6073 26.0872C22.6495 23.3047 23.6511 21.9517 25.432 18.9159C26.7061 16.743 28.1475 14.2832 29.7348 11.0274C30.7794 8.88322 31.3531 7.4872 32.8424 5.76847C34.5491 3.79875 35.9332 3.16768 36.6671 2.89995C37.0926 2.74457 38.2471 2.36449 39.7746 2.42186C40.2169 2.43859 41.7133 2.52943 43.3603 3.37804C44.9021 4.17405 45.9013 5.288 46.9459 6.72465C48.9157 9.43302 49.432 10.7382 51.4878 14.6131C53.3141 18.0553 55.0734 21.3063 55.0734 21.3063C55.8766 22.6139 57.7029 26.5653 57.942 27.2824C58.2742 28.2816 58.4201 29.6729 58.4201 30.39C58.4201 31.033 58.573 32.4577 57.7029 33.9756C57.3683 34.5589 56.3643 35.8928 54.8344 36.6051C52.836 37.5374 50.8161 37.0498 49.5754 36.6051C46.8862 35.6394 45.3683 33.5143 44.7946 32.7804C44.1372 31.9414 44.0774 31.3462 42.6432 28.7167C42.2296 27.9589 39.844 22.7406 39.5356 22.7406Z" fill="url(#paint1_linear_1208_34473)" stroke="url(#paint2_linear_1208_34473)" stroke-miterlimit="10" />
	<defs>
		<linearGradient id="paint0_linear_1208_34473" x1="5.54606" y1="4.47426" x2="18.2104" y2="27.7128" gradientUnits="userSpaceOnUse">
			<stop stop-color="#00A8F3" />
			<stop offset="0.3392" stop-color="#0AA9EF" />
			<stop offset="0.9115" stop-color="#24ABE4" />
			<stop offset="1" stop-color="#29ABE2" />
		</linearGradient>
		<linearGradient id="paint1_linear_1208_34473" x1="70.6421" y1="19.7751" x2="108.233" y2="19.7751" gradientUnits="userSpaceOnUse">
			<stop stop-color="#00A8F3" />
			<stop offset="0.3392" stop-color="#0AA9EF" />
			<stop offset="0.9115" stop-color="#24ABE4" />
			<stop offset="1" stop-color="#29ABE2" />
		</linearGradient>
		<linearGradient id="paint2_linear_1208_34473" x1="20.72" y1="19.7751" x2="58.5497" y2="19.7751" gradientUnits="userSpaceOnUse">
			<stop stop-color="#00A8F3" />
			<stop offset="0.3392" stop-color="#0AA9EF" />
			<stop offset="0.9115" stop-color="#24ABE4" />
			<stop offset="1" stop-color="#29ABE2" />
		</linearGradient>
	</defs>
</svg>
