<svg width="58" height="37" viewBox="0 0 58 37" fill="none" xmlns="http://www.w3.org/2000/svg">
	<path d="M19.8901 1.95219C16.6559 1.65817 14.9324 3.33386 14.3921 3.86454C13.4527 4.78725 11.9634 6.58008 11.2845 7.68924C8.49251 12.255 7.90925 13.8303 5.78654 17.49C4.46223 19.7729 3.27897 22.1347 1.96183 24.4223C1.58175 25.0797 1.00088 26.3203 0.766615 27.7689C0.434344 29.8247 0.771396 31.4813 1.00566 32.0717C1.3714 32.9968 2.39211 34.7275 4.35227 35.6574C7.00088 36.9124 9.8455 35.3395 10.5674 34.9403C11.1985 34.5913 12.4702 33.7857 14.8702 30.1594C16.3379 27.941 16.6152 27.1092 18.6949 23.2271C20.9658 18.9912 22.1013 16.8733 22.9977 15.3386C24.4845 12.7976 25.1443 11.8582 25.3881 10.0797C25.5172 9.1498 25.7921 6.9004 24.432 4.82072C24.1642 4.40956 23.0933 2.82709 21.0853 2.19123C20.8989 2.13386 20.459 2.00478 19.8901 1.95219Z" fill="url(#paint0_linear_401_3476)" stroke="#29ABE2" stroke-miterlimit="10" />
	<path d="M38.5356 21.7402C38.0575 21.7402 35.287 27.5418 33.9938 29.3896C32.3204 31.7801 31.3045 33.1235 30.6471 33.6924C29.526 34.6653 28.2973 35.196 27.5396 35.3657C26.3993 35.6215 25.1491 35.6645 23.7149 35.1267C22.24 34.5721 21.4416 33.4773 21.0854 32.9753C20.1316 31.6295 19.9643 30.2908 19.8902 29.6287C19.687 27.8215 20.134 26.3514 20.6073 25.0868C21.6495 22.3044 22.6511 20.9514 24.432 17.9155C25.7061 15.7426 27.1475 13.2828 28.7348 10.0271C29.7794 7.88285 30.3531 6.48683 31.8424 4.76811C33.5491 2.79839 34.9332 2.16731 35.6671 1.89958C36.0926 1.7442 37.2471 1.36412 38.7746 1.42149C39.2169 1.43823 40.7133 1.52906 42.3603 2.37767C43.9021 3.17369 44.9013 4.28763 45.9459 5.72428C47.9157 8.43265 48.432 9.73783 50.4878 13.6127C52.3141 17.055 54.0734 20.306 54.0734 20.306C54.8766 21.6135 56.7029 25.5649 56.942 26.2821C57.2742 27.2813 57.4201 28.6725 57.4201 29.3896C57.4201 30.0326 57.573 31.4574 56.7029 32.9753C56.3683 33.5585 55.3643 34.8924 53.8344 35.6048C51.836 36.537 49.8161 36.0494 48.5754 35.6048C45.8862 34.639 44.3683 32.5139 43.7946 31.7801C43.1372 30.941 43.0774 30.3458 41.6432 27.7163C41.2296 26.9585 38.844 21.7402 38.5356 21.7402Z" fill="url(#paint1_linear_401_3476)" stroke="url(#paint2_linear_401_3476)" stroke-miterlimit="10" />
	<defs>
		<linearGradient id="paint0_linear_401_3476" x1="4.54654" y1="3.47413" x2="17.2109" y2="26.7126" gradientUnits="userSpaceOnUse">
			<stop stop-color="#00A8F3" />
			<stop offset="0.3392" stop-color="#0AA9EF" />
			<stop offset="0.9115" stop-color="#24ABE4" />
			<stop offset="1" stop-color="#29ABE2" />
		</linearGradient>
		<linearGradient id="paint1_linear_401_3476" x1="69.6421" y1="18.7748" x2="107.233" y2="18.7748" gradientUnits="userSpaceOnUse">
			<stop stop-color="#00A8F3" />
			<stop offset="0.3392" stop-color="#0AA9EF" />
			<stop offset="0.9115" stop-color="#24ABE4" />
			<stop offset="1" stop-color="#29ABE2" />
		</linearGradient>
		<linearGradient id="paint2_linear_401_3476" x1="19.72" y1="18.7748" x2="57.5497" y2="18.7748" gradientUnits="userSpaceOnUse">
			<stop stop-color="#00A8F3" />
			<stop offset="0.3392" stop-color="#0AA9EF" />
			<stop offset="0.9115" stop-color="#24ABE4" />
			<stop offset="1" stop-color="#29ABE2" />
		</linearGradient>
	</defs>
</svg>
