<svg width="34" height="40" viewBox="0 0 34 40" fill="none" xmlns="http://www.w3.org/2000/svg">
<g clip-path="url(#clip0_401_3488)">
<path d="M10.6511 39.1756C10.8253 39.2423 10.9994 39.2756 11.1736 39.2756C11.3477 39.2756 11.5219 39.2423 11.696 39.1756C11.8702 39.1089 12.0226 39.02 12.1532 38.9089C15.3314 36.0423 17.7042 33.3814 19.2715 30.9263C20.8389 28.4703 21.6226 26.1756 21.6226 24.0423C21.6226 20.7089 20.572 18.0534 18.4709 16.0756C16.3706 14.0978 13.9382 13.1089 11.1736 13.1089C8.40896 13.1089 5.97653 14.0978 3.87628 16.0756C1.77517 18.0534 0.724609 20.7089 0.724609 24.0423C0.724609 26.1756 1.50828 28.4703 3.07563 30.9263C4.64298 33.3814 7.01577 36.0423 10.194 38.9089C10.3246 39.02 10.477 39.1089 10.6511 39.1756Z" fill="white"/>
<path d="M10.6511 39.1756C10.8253 39.2423 10.9994 39.2756 11.1736 39.2756C11.3477 39.2756 11.5219 39.2423 11.696 39.1756C11.8702 39.1089 12.0226 39.02 12.1532 38.9089C15.3314 36.0423 17.7042 33.3814 19.2715 30.9263C20.8389 28.4703 21.6226 26.1756 21.6226 24.0423C21.6226 20.7089 20.572 18.0534 18.4709 16.0756C16.3706 14.0978 13.9382 13.1089 11.1736 13.1089C8.40896 13.1089 5.97653 14.0978 3.87628 16.0756C1.77517 18.0534 0.724609 20.7089 0.724609 24.0423C0.724609 26.1756 1.50828 28.4703 3.07563 30.9263C4.64298 33.3814 7.01577 36.0423 10.194 38.9089C10.3246 39.02 10.477 39.1089 10.6511 39.1756Z" fill="#29ABE2"/>
<path fill-rule="evenodd" clip-rule="evenodd" d="M21.5176 2.28523L19 0.442261L16.4824 2.28523L13.4511 1.54601L11.8304 4.21215L8.74695 4.68921L8.26989 7.77263L5.60375 9.39335L6.34297 12.4246L4.5 14.9423L6.34297 17.4599L5.60375 20.4912L8.26989 22.1119L8.74695 25.1953L11.8304 25.6724L13.4511 28.3385L16.4824 27.5993L19 29.4423L21.5176 27.5993L24.5489 28.3385L26.1696 25.6724L29.253 25.1953L29.7301 22.1119L32.3963 20.4912L31.657 17.4599L33.5 14.9423L31.657 12.4246L32.3963 9.39335L29.7301 7.77263L29.253 4.68921L26.1696 4.21215L24.5489 1.54601L21.5176 2.28523ZM19 24.4423C24.2467 24.4423 28.5 20.189 28.5 14.9423C28.5 9.69556 24.2467 5.44226 19 5.44226C13.7533 5.44226 9.5 9.69556 9.5 14.9423C9.5 20.189 13.7533 24.4423 19 24.4423Z" fill="#FF0000"/>
<path fill-rule="evenodd" clip-rule="evenodd" d="M19 26.4423C25.3513 26.4423 30.5 21.2935 30.5 14.9423C30.5 8.59099 25.3513 3.44226 19 3.44226C12.6487 3.44226 7.5 8.59099 7.5 14.9423C7.5 21.2935 12.6487 26.4423 19 26.4423ZM19 25.347C24.7464 25.347 29.4048 20.6887 29.4048 14.9423C29.4048 9.19587 24.7464 4.5375 19 4.5375C13.2536 4.5375 8.59524 9.19587 8.59524 14.9423C8.59524 20.6887 13.2536 25.347 19 25.347Z" fill="black"/>
<circle cx="19" cy="14.9423" r="9.5" fill="#FF0000"/>
<path d="M9.98295 12.9508V12.1695H15.4375V12.9508H13.1506V19.4423H12.2699V12.9508H9.98295ZM22.6303 15.8059C22.6303 16.5729 22.4918 17.2358 22.2148 17.7945C21.9379 18.3532 21.5579 18.7841 21.0749 19.0871C20.592 19.3902 20.0404 19.5417 19.4201 19.5417C18.7998 19.5417 18.2482 19.3902 17.7653 19.0871C17.2823 18.7841 16.9023 18.3532 16.6254 17.7945C16.3484 17.2358 16.2099 16.5729 16.2099 15.8059C16.2099 15.0389 16.3484 14.376 16.6254 13.8173C16.9023 13.2585 17.2823 12.8277 17.7653 12.5246C18.2482 12.2216 18.7998 12.0701 19.4201 12.0701C20.0404 12.0701 20.592 12.2216 21.0749 12.5246C21.5579 12.8277 21.9379 13.2585 22.2148 13.8173C22.4918 14.376 22.6303 15.0389 22.6303 15.8059ZM21.7781 15.8059C21.7781 15.1762 21.6727 14.6447 21.462 14.2114C21.2537 13.7782 20.9708 13.4503 20.6133 13.2278C20.2582 13.0052 19.8604 12.894 19.4201 12.894C18.9798 12.894 18.5808 13.0052 18.2234 13.2278C17.8683 13.4503 17.5853 13.7782 17.3746 14.2114C17.1663 14.6447 17.0621 15.1762 17.0621 15.8059C17.0621 16.4356 17.1663 16.9671 17.3746 17.4004C17.5853 17.8336 17.8683 18.1615 18.2234 18.384C18.5808 18.6066 18.9798 18.7178 19.4201 18.7178C19.8604 18.7178 20.2582 18.6066 20.6133 18.384C20.9708 18.1615 21.2537 17.8336 21.462 17.4004C21.6727 16.9671 21.7781 16.4356 21.7781 15.8059ZM24.1112 19.4423V12.1695H26.5685C27.1391 12.1695 27.6055 12.2725 27.9677 12.4785C28.3323 12.6821 28.6022 12.9579 28.7773 13.3059C28.9525 13.6539 29.0401 14.0422 29.0401 14.4707C29.0401 14.8992 28.9525 15.2886 28.7773 15.639C28.6045 15.9894 28.337 16.2687 27.9748 16.4771C27.6126 16.683 27.1486 16.786 26.5827 16.786H24.8214V16.0048H26.5543C26.945 16.0048 27.2586 15.9373 27.4954 15.8023C27.7321 15.6674 27.9038 15.4851 28.0103 15.2555C28.1192 15.0235 28.1737 14.7619 28.1737 14.4707C28.1737 14.1795 28.1192 13.9191 28.0103 13.6894C27.9038 13.4598 27.7309 13.2799 27.4918 13.1496C27.2527 13.0171 26.9355 12.9508 26.5401 12.9508H24.9918V19.4423H24.1112Z" fill="white"/>
</g>
<defs>
<clipPath id="clip0_401_3488">
<rect width="33" height="39" fill="white" transform="translate(0.5 0.442261)"/>
</clipPath>
</defs>
</svg>
